<svg width="23" height="26" viewBox="0 0 23 26" fill="none" xmlns="http://www.w3.org/2000/svg">
<g filter="url(#filter0_d_239_3366)">
<path d="M16.6111 18.917C15.5556 19.9402 14.4031 19.7787 13.2937 19.294C12.1197 18.7985 11.0426 18.777 9.80398 19.294C8.25299 19.9618 7.43441 19.7679 6.50812 18.917C1.25199 13.4993 2.02748 5.2489 7.99449 4.94732C9.44854 5.02271 10.461 5.74435 11.3119 5.80898C12.5828 5.55048 13.7999 4.8073 15.1571 4.90423C16.7834 5.03348 18.0113 5.67973 18.8191 6.84297C15.4586 8.8571 16.2557 13.2839 19.3361 14.5225C18.7222 16.1381 17.9251 17.743 16.6003 18.9278L16.6111 18.917ZM11.2042 4.88269C11.0426 2.48081 12.9921 0.498989 15.2324 0.305115C15.5448 3.08397 12.7121 5.15196 11.2042 4.88269Z" fill="white"/>
<path d="M16.3344 18.6304L16.2631 18.558C15.8187 18.9888 15.3804 19.1507 14.9485 19.1715C14.4992 19.1932 14.0155 19.0637 13.4939 18.8358L13.4939 18.8358L13.4881 18.8333C12.1923 18.2864 10.9757 18.2631 9.61139 18.8326L9.61137 18.8325L9.60625 18.8347C8.86865 19.1523 8.37512 19.2331 7.9905 19.1797C7.61918 19.1282 7.2761 18.9414 6.85684 18.5584C4.32742 15.9454 3.27422 12.6758 3.54006 10.0643C3.67288 8.75941 4.13167 7.63941 4.87349 6.83424C5.6045 6.04081 6.63761 5.52242 7.99397 5.44804C8.63365 5.48501 9.18571 5.66091 9.70766 5.85177C9.78092 5.87856 9.85559 5.90658 9.93132 5.93498C10.3661 6.09808 10.8357 6.27425 11.274 6.30754L11.3434 6.31281L11.4115 6.29895C11.9064 6.19829 12.4079 6.02444 12.8727 5.86334C13.0395 5.80551 13.2016 5.74933 13.3569 5.69876C13.9734 5.49809 14.5409 5.36189 15.1195 5.40282C16.4132 5.50602 17.3923 5.95488 18.0913 6.72791C15.0476 8.98149 15.7944 13.2414 18.6993 14.7776C18.1208 16.2098 17.3889 17.5517 16.267 18.5551L16.3344 18.6304ZM12.3193 4.21113C12.0931 4.30656 11.8847 4.36422 11.7014 4.39007C11.8053 2.67581 13.1311 1.25963 14.7523 0.885954C14.7043 1.86856 14.2147 2.73689 13.553 3.3778C13.1657 3.75298 12.7313 4.03732 12.3193 4.21113Z" stroke="url(#paint0_linear_239_3366)"/>
</g>
<defs>
<filter id="filter0_d_239_3366" x="0.0169492" y="0.305115" width="22.3022" height="25.3559" filterUnits="userSpaceOnUse" color-interpolation-filters="sRGB">
<feFlood flood-opacity="0" result="BackgroundImageFix"/>
<feColorMatrix in="SourceAlpha" type="matrix" values="0 0 0 0 0 0 0 0 0 0 0 0 0 0 0 0 0 0 127 0" result="hardAlpha"/>
<feOffset dy="2.98305"/>
<feGaussianBlur stdDeviation="1.49153"/>
<feComposite in2="hardAlpha" operator="out"/>
<feColorMatrix type="matrix" values="0 0 0 0 0 0 0 0 0 0 0 0 0 0 0 0 0 0 0.09 0"/>
<feBlend mode="normal" in2="BackgroundImageFix" result="effect1_dropShadow_239_3366"/>
<feBlend mode="normal" in="SourceGraphic" in2="effect1_dropShadow_239_3366" result="shape"/>
</filter>
<linearGradient id="paint0_linear_239_3366" x1="11.1681" y1="0.305115" x2="11.1681" y2="19.6949" gradientUnits="userSpaceOnUse">
<stop stop-color="white" stop-opacity="0.15"/>
<stop offset="1" stop-color="white" stop-opacity="0.03"/>
</linearGradient>
</defs>
</svg>
