<svg width="25" height="25" viewBox="0 0 25 25" fill="none" xmlns="http://www.w3.org/2000/svg">
<path d="M3.98499 17.5C3.71977 17.5 3.46541 17.3946 3.27788 17.2071C3.09034 17.0196 2.98499 16.7652 2.98499 16.5C2.98499 16.2348 3.09034 15.9804 3.27788 15.7929C3.46541 15.6053 3.71977 15.5 3.98499 15.5H14.485C15.485 15.5 16.485 17.5 15.985 17.5H3.98499ZM17.985 17.5C17.7198 17.5 17.4654 17.3946 17.2779 17.2071C17.0903 17.0196 16.985 16.7652 16.985 16.5C16.985 16.2348 17.0903 15.9804 17.2779 15.7929C17.4654 15.6053 17.7198 15.5 17.985 15.5H21.985C22.2502 15.5 22.5046 15.6053 22.6921 15.7929C22.8796 15.9804 22.985 16.2348 22.985 16.5C22.985 16.7652 22.8796 17.0196 22.6921 17.2071C22.5046 17.3946 22.2502 17.5 21.985 17.5H17.985ZM13.618 4.00098C13.7503 3.77104 13.9686 3.60309 14.2248 3.53407C14.4809 3.46506 14.754 3.50064 14.984 3.63298C15.2139 3.76532 15.3819 3.98359 15.4509 4.23977C15.5199 4.49594 15.4843 4.76904 15.352 4.99898L8.44499 16.995C8.37952 17.1088 8.29227 17.2087 8.18822 17.2888C8.08417 17.369 7.96535 17.4278 7.83855 17.462C7.71176 17.4963 7.57946 17.5052 7.44922 17.4883C7.31898 17.4713 7.19334 17.4289 7.07949 17.3635C6.96563 17.298 6.86578 17.2108 6.78565 17.1067C6.70551 17.0027 6.64665 16.8838 6.61243 16.757C6.57821 16.6303 6.5693 16.498 6.58621 16.3677C6.60312 16.2375 6.64552 16.1118 6.71099 15.998L13.618 4.00098ZM4.98499 19C5.48499 18 8.48499 17 7.48499 18.72C6.9424 19.6477 6.39807 20.5743 5.85199 21.5C5.71964 21.7299 5.50138 21.8979 5.2452 21.9669C4.98903 22.0359 4.71593 22.0003 4.48599 21.868C4.25604 21.7356 4.08809 21.5174 4.01908 21.2612C3.95006 21.005 3.98564 20.7319 4.11799 20.502L4.98499 19ZM10.118 4.99898C9.98564 4.76904 9.95006 4.49594 10.0191 4.23977C10.0881 3.98359 10.256 3.76532 10.486 3.63298C10.7159 3.50064 10.989 3.46506 11.2452 3.53407C11.5014 3.60309 11.7196 3.77104 11.852 4.00098L13.595 7.02998C13.6626 7.14386 13.7069 7.27004 13.7254 7.40119C13.7438 7.53234 13.736 7.66585 13.7025 7.79396C13.6689 7.92208 13.6102 8.04225 13.5298 8.1475C13.4494 8.25275 13.3489 8.34098 13.2342 8.40708C13.1194 8.47317 12.9926 8.51581 12.8613 8.53252C12.7299 8.54922 12.5965 8.53966 12.4688 8.50439C12.3412 8.46912 12.2218 8.40885 12.1176 8.32707C12.0134 8.24528 11.9265 8.14362 11.862 8.02798L10.118 4.99898ZM13.985 12C13.087 10.5 13.985 7.49998 14.701 8.99598L21.351 20.5C21.4791 20.7295 21.5118 21.0003 21.4417 21.2538C21.3717 21.5072 21.2047 21.7228 20.9769 21.854C20.7491 21.9852 20.4787 22.0214 20.2244 21.9548C19.9701 21.8882 19.7522 21.7241 19.618 21.498L13.985 12Z" fill="white"/>
</svg>
