<svg width="20" height="21" viewBox="0 0 20 21" fill="none" xmlns="http://www.w3.org/2000/svg">
<path fill-rule="evenodd" clip-rule="evenodd" d="M17.5001 10.5C17.5001 10.04 17.1276 9.66667 16.6668 9.66667C16.206 9.66667 15.8335 10.04 15.8335 10.5V12.4142L12.2993 8.29083C12.036 7.9825 11.5876 7.90916 11.2376 8.11916L7.68347 10.2517L3.97431 5.8C3.67931 5.4475 3.15514 5.3975 2.79931 5.69333C2.44681 5.9875 2.39847 6.51333 2.69264 6.86666L6.85931 11.8667C7.12347 12.1825 7.57764 12.26 7.92931 12.0475L11.4918 9.91L14.8551 13.8333H12.5001C12.0393 13.8333 11.6668 14.2067 11.6668 14.6667C11.6668 15.1267 12.0393 15.5 12.5001 15.5H16.6668C16.7701 15.5 16.8726 15.4775 16.9701 15.4383C17.011 15.4225 17.0426 15.3958 17.0801 15.375C17.1235 15.3492 17.1701 15.3333 17.2085 15.2992C17.2168 15.2925 17.2201 15.2825 17.2276 15.275C17.2735 15.2333 17.3051 15.1825 17.3401 15.1317C17.3676 15.0917 17.4001 15.0567 17.4193 15.0133C17.4401 14.9692 17.4468 14.92 17.4585 14.8725C17.4743 14.8142 17.4918 14.7575 17.4935 14.6975C17.4943 14.6867 17.5001 14.6775 17.5001 14.6667V10.5Z" fill="#EC4A4A"/>
</svg>
