<svg width="36" height="36" viewBox="0 0 36 36" fill="none" xmlns="http://www.w3.org/2000/svg">
<path d="M32 17.9545C32 21.288 29.2518 24 25.875 24H21.5C21.0163 24 20.625 23.6133 20.625 23.1364C20.625 22.6594 21.0163 22.2727 21.5 22.2727H25.875C28.2872 22.2727 30.25 20.3354 30.25 17.9545C30.25 15.5737 28.2872 13.6364 25.875 13.6364H25C24.5163 13.6364 24.125 13.2497 24.125 12.7727C24.125 9.43931 21.3768 6.72727 18 6.72727C14.6232 6.72727 11.875 9.43931 11.875 12.7727C11.875 13.2497 11.4837 13.6364 11 13.6364H10.125C7.71284 13.6364 5.75 15.5737 5.75 17.9545C5.75 20.3354 7.71284 22.2727 10.125 22.2727H14.5C14.9837 22.2727 15.375 22.6594 15.375 23.1364C15.375 23.6133 14.9837 24 14.5 24H10.125C6.74816 24 4 21.288 4 17.9545C4 14.6211 6.74816 11.9091 10.125 11.9091H10.1738C10.6104 8.02812 13.9531 5 18 5C22.0469 5 25.3896 8.02812 25.8262 11.9091H25.875C29.2521 11.9091 32 14.6211 32 17.9545Z" fill="#2CA0E2"/>
<path d="M18.6875 28.6141L20.4789 26.8227C20.784 26.5174 21.2783 26.5176 21.5836 26.8227C21.8888 27.1277 21.8888 27.6221 21.5836 27.9273L18.4586 31.0523C18.306 31.2049 18.106 31.2812 17.9062 31.2812C17.7064 31.2812 17.5064 31.2049 17.3539 31.0523L14.2289 27.9273C13.9236 27.6223 13.9238 27.1279 14.2289 26.8227C14.534 26.5174 15.0283 26.5174 15.3336 26.8227L17.125 28.6141V23.6977V18.7812C17.125 18.3498 17.4744 18 17.9062 18C18.3381 18 18.6875 18.3498 18.6875 18.7812V23.6977V28.6141Z" fill="url(#paint0_linear_294_3773)"/>
<defs>
<linearGradient id="paint0_linear_294_3773" x1="14" y1="18" x2="25.6083" y2="24.8284" gradientUnits="userSpaceOnUse">
<stop stop-color="#2CA0E2" stop-opacity="0.64"/>
<stop offset="1" stop-color="#2CA0E2" stop-opacity="0"/>
</linearGradient>
</defs>
</svg>
