<svg width="20" height="20" viewBox="0 0 20 20" fill="none" xmlns="http://www.w3.org/2000/svg">
<path d="M9.69491 0.805115C11.9294 0.805115 13.9723 1.60841 15.5662 2.93684L13.5216 4.98153C12.4608 4.16976 11.136 3.68308 9.69491 3.68308C6.20636 3.68308 3.37796 6.51148 3.37796 10C3.37796 13.4886 6.20636 16.317 9.69491 16.317C12.4462 16.317 14.7779 14.5557 15.6453 12.1059L15.8815 11.439L15.174 11.439L10.1949 11.439L10.1949 8.56104L17.9203 8.56105L17.9203 8.60128L18.4203 8.60128L18.7817 8.60128C18.8521 9.05807 18.8898 9.52498 18.8898 10C18.8898 15.0779 14.7728 19.1949 9.69491 19.1949C4.61704 19.1949 0.5 15.0779 0.5 10C0.5 4.92215 4.61704 0.805115 9.69491 0.805115Z" fill="#FFC107" stroke="url(#paint0_linear_239_3356)"/>
<path d="M15.4225 17.1795L13.1675 15.2712C12.1406 15.9525 10.9329 16.3179 9.69459 16.3169M15.4225 17.1795L9.69498 15.8169M15.4225 17.1795C13.8501 18.4378 11.8628 19.1949 9.69498 19.1949C6.27046 19.1949 3.28818 17.3184 1.70589 14.5377M9.69459 16.3169L9.69498 15.8169M9.69459 16.3169C9.69472 16.3169 9.69485 16.3169 9.69498 16.3169L9.69498 15.8169M9.69459 16.3169C7.19422 16.3168 5.04017 14.8616 4.01734 12.7568M9.69498 15.8169C7.35686 15.8169 5.34589 14.4346 4.42255 12.4446L4.01734 12.7568M4.01734 12.7568C3.94247 12.6027 3.87366 12.4451 3.81121 12.2844L4.2256 11.9651M4.01734 12.7568L1.70589 14.5377M1.70589 14.5377C1.63774 14.4179 1.57219 14.2965 1.50932 14.1735L1.06409 14.401L1.36925 14.7971L1.70589 14.5377Z" fill="#4CAF50" stroke="url(#paint1_linear_239_3356)"/>
<path d="M16.2537 16.463C16.2329 16.4835 16.2128 16.503 16.1935 16.5215L13.9707 14.6406C14.7237 13.9463 15.2996 13.0775 15.6451 12.1067L15.8827 11.4391L15.174 11.4391L10.1949 11.4391L10.1949 8.5611L17.9204 8.5611L17.9204 8.60133L18.4204 8.60133L18.7818 8.60133C18.8521 9.05812 18.8899 9.52503 18.8899 10.0001C18.8899 12.3012 18.0822 14.0475 17.2994 15.1977C16.9077 15.7733 16.5235 16.1973 16.2537 16.463Z" fill="#1976D2" stroke="url(#paint2_linear_239_3356)"/>
<path d="M15.5662 2.93684L13.5215 4.98153C12.4607 4.16976 11.136 3.68308 9.69489 3.68308C7.26712 3.68308 5.16385 5.05325 4.10696 7.05965L1.76936 5.34532C3.36804 2.62849 6.31763 0.805115 9.69489 0.805115C11.9294 0.805115 13.9723 1.60841 15.5662 2.93684Z" fill="#FF3D00" stroke="url(#paint3_linear_239_3356)"/>
<defs>
<linearGradient id="paint0_linear_239_3356" x1="9.69491" y1="0.305115" x2="9.69491" y2="19.6949" gradientUnits="userSpaceOnUse">
<stop stop-color="white" stop-opacity="0.15"/>
<stop offset="1" stop-color="white" stop-opacity="0.03"/>
</linearGradient>
<linearGradient id="paint1_linear_239_3356" x1="8.62951" y1="11.9651" x2="8.62951" y2="19.6949" gradientUnits="userSpaceOnUse">
<stop stop-color="white" stop-opacity="0.15"/>
<stop offset="1" stop-color="white" stop-opacity="0.03"/>
</linearGradient>
<linearGradient id="paint2_linear_239_3356" x1="14.5424" y1="8.0611" x2="14.5424" y2="17.188" gradientUnits="userSpaceOnUse">
<stop stop-color="white" stop-opacity="0.15"/>
<stop offset="1" stop-color="white" stop-opacity="0.03"/>
</linearGradient>
<linearGradient id="paint3_linear_239_3356" x1="8.70697" y1="0.305115" x2="8.70697" y2="7.82352" gradientUnits="userSpaceOnUse">
<stop stop-color="white" stop-opacity="0.15"/>
<stop offset="1" stop-color="white" stop-opacity="0.03"/>
</linearGradient>
</defs>
</svg>
