<svg width="48" height="48" viewBox="0 0 48 48" fill="none" xmlns="http://www.w3.org/2000/svg">
<rect width="48" height="48" rx="12" fill="url(#paint0_linear_456_5023)"/>
<path d="M31.9999 28.92V31.92C32.0011 32.1985 31.944 32.4741 31.8324 32.7293C31.7209 32.9845 31.5572 33.2136 31.352 33.4018C31.1468 33.5901 30.9045 33.7335 30.6407 33.8227C30.3769 33.9119 30.0973 33.945 29.8199 33.92C26.7428 33.5856 23.7869 32.5341 21.1899 30.85C18.7738 29.3146 16.7253 27.2661 15.1899 24.85C13.4999 22.2412 12.4482 19.271 12.1199 16.18C12.0949 15.9034 12.1278 15.6247 12.2164 15.3616C12.3051 15.0985 12.4475 14.8567 12.6347 14.6516C12.8219 14.4465 13.0497 14.2827 13.3037 14.1705C13.5577 14.0583 13.8323 14.0002 14.1099 14H17.1099C17.5952 13.9952 18.0657 14.1671 18.4337 14.4835C18.8017 14.8 19.042 15.2394 19.1099 15.72C19.2366 16.68 19.4714 17.6227 19.8099 18.53C19.9445 18.8879 19.9736 19.2769 19.8938 19.6509C19.8141 20.0248 19.6288 20.3681 19.3599 20.64L18.0899 21.91C19.5135 24.4135 21.5864 26.4864 24.0899 27.91L25.3599 26.64C25.6318 26.3711 25.9751 26.1858 26.3491 26.1061C26.723 26.0263 27.112 26.0554 27.4699 26.19C28.3772 26.5285 29.3199 26.7634 30.2799 26.89C30.7657 26.9585 31.2093 27.2032 31.5265 27.5775C31.8436 27.9518 32.0121 28.4296 31.9999 28.92Z" stroke="url(#paint1_linear_456_5023)" stroke-width="2" stroke-linecap="round" stroke-linejoin="round"/>
<defs>
<linearGradient id="paint0_linear_456_5023" x1="48" y1="0.643534" x2="45.423" y2="51.0056" gradientUnits="userSpaceOnUse">
<stop stop-color="#2CA0E2" stop-opacity="0.08"/>
<stop offset="0.755208" stop-color="white" stop-opacity="0.05"/>
</linearGradient>
<linearGradient id="paint1_linear_456_5023" x1="12.1118" y1="20.2486" x2="32.3961" y2="20.3555" gradientUnits="userSpaceOnUse">
<stop stop-color="#2CA0E2"/>
<stop offset="1" stop-color="#603CC6"/>
</linearGradient>
</defs>
</svg>
