<svg width="36" height="36" viewBox="0 0 36 36" fill="none" xmlns="http://www.w3.org/2000/svg">
<path d="M27.3823 23.7427C28.4427 22.0152 29.0027 20.0273 28.9999 18.0003C29.0027 15.9732 28.4427 13.985 27.3823 12.2574L27.3764 12.2478C26.3926 10.6443 25.0141 9.31993 23.3725 8.40118C21.731 7.48243 19.8812 7 18.0001 7C16.1189 7 14.2692 7.48243 12.6276 8.40118C10.986 9.31993 9.60752 10.6443 8.62377 12.2478L8.61784 12.2574C7.5601 13.9861 7.00037 15.9734 7.00037 18C7.00037 20.0267 7.5601 22.014 8.61784 23.7427L8.62402 23.7526C9.60781 25.356 10.9863 26.6803 12.6279 27.599C14.2694 28.5176 16.1191 29 18.0003 29C19.8814 29 21.7311 28.5175 23.3726 27.5988C25.0141 26.6801 26.3926 25.3557 27.3764 23.7523L27.3823 23.7427ZM19.4061 27.1146C19.1964 27.3169 18.9551 27.4835 18.6917 27.608C18.4756 27.7107 18.2393 27.7639 17.9999 27.7639C17.7606 27.7639 17.5243 27.7107 17.3082 27.608C16.807 27.352 16.378 26.9745 16.0604 26.5099C15.4117 25.5725 14.931 24.5294 14.6398 23.4273C15.7587 23.3584 16.8788 23.3233 18.0001 23.322C19.1208 23.322 20.241 23.3571 21.3606 23.4273C21.1993 23.9939 20.9979 24.5484 20.7579 25.0864C20.4419 25.8431 19.9829 26.5317 19.4061 27.1146ZM8.25769 18.618H12.6944C12.7234 19.856 12.8576 21.0893 13.0956 22.3046C11.8828 22.4113 10.673 22.558 9.46643 22.7445C8.75979 21.4768 8.34672 20.0666 8.25769 18.618ZM9.46643 13.2558C10.6725 13.4427 11.8827 13.5893 13.0969 13.6958C12.8584 14.9109 12.7239 16.1441 12.6949 17.3821H8.25769C8.34675 15.9335 8.75982 14.5234 9.46643 13.2558ZM16.5941 8.88551C16.8037 8.68321 17.045 8.51655 17.3084 8.39213C17.5246 8.28943 17.7609 8.23615 18.0002 8.23615C18.2395 8.23615 18.4758 8.28943 18.6919 8.39213C19.1931 8.6481 19.6221 9.02561 19.9397 9.49013C20.5884 10.4276 21.0691 11.4707 21.3603 12.5728C20.2414 12.6417 19.1213 12.6768 18.0001 12.6781C16.8793 12.6781 15.7592 12.643 14.6396 12.5728C14.8008 12.0062 15.0022 11.4517 15.2422 10.9137C15.5583 10.157 16.0173 9.46838 16.5941 8.88551ZM27.7425 17.3821H23.3057C23.2768 16.1441 23.1426 14.9108 22.9045 13.6955C24.1174 13.5887 25.3271 13.4421 26.5337 13.2555C27.2404 14.5233 27.6534 15.9334 27.7425 17.3821ZM14.3387 22.2084C14.0971 21.026 13.9606 19.8245 13.9309 18.618H22.0695C22.0401 19.8246 21.9039 21.0261 21.6624 22.2086C20.4429 22.1286 19.2222 22.0877 18.0001 22.086C16.779 22.086 15.5585 22.1268 14.3387 22.2084ZM21.6614 13.7917C21.9031 14.9741 22.0396 16.1756 22.0693 17.3821H13.9309C13.9603 16.1755 14.0965 14.9739 14.338 13.7914C15.5575 13.8715 16.7782 13.9124 18.0003 13.914C19.2214 13.914 20.4419 13.8732 21.6617 13.7914L21.6614 13.7917ZM23.3052 18.618H27.7425C27.6534 20.0666 27.2403 21.4767 26.5337 22.7443C25.3274 22.5574 24.1173 22.4108 22.9033 22.3043C23.1418 21.0892 23.2762 19.856 23.3052 18.618ZM25.7926 12.1182C24.738 12.2703 23.6803 12.3908 22.6195 12.4796C22.4289 11.7697 22.183 11.0758 21.8841 10.4042C21.6112 9.78628 21.2678 9.20193 20.8608 8.6628C22.8278 9.2661 24.5539 10.4755 25.7926 12.1182ZM11.0961 11.0959C12.2245 9.96639 13.6128 9.13096 15.1391 8.6628C15.1159 8.69296 15.0922 8.72163 15.0694 8.75203C14.2848 9.88141 13.7133 11.1447 13.3831 12.4796C12.3222 12.3898 11.2637 12.2693 10.2077 12.1182C10.4801 11.7574 10.7769 11.4158 11.0961 11.0959ZM10.2077 23.8819C11.2622 23.7298 12.32 23.6093 13.3809 23.5205C13.5715 24.2304 13.8174 24.9243 14.1163 25.5958C14.3892 26.2138 14.7326 26.7982 15.1396 27.3373C13.1726 26.734 11.4465 25.5246 10.2077 23.8819ZM24.9045 24.9042C23.7761 26.0337 22.3879 26.8691 20.8615 27.3373C20.8847 27.3071 20.9085 27.2785 20.9312 27.248C21.7158 26.1187 22.2873 24.8554 22.6175 23.5205C23.6785 23.6103 24.7369 23.7307 25.7929 23.8819C25.5206 24.2426 25.2237 24.5842 24.9045 24.9042Z" fill="#2CA0E2"/>
</svg>
