<svg width="62" height="46" viewBox="0 0 62 46" fill="none" xmlns="http://www.w3.org/2000/svg">
<path d="M9.40808 38.1743C10.2639 38.0761 15.7731 37.2727 15.7731 35.9604C15.7731 35.7998 15.684 35.6391 15.5146 35.4873C18.1176 37.2281 19.3211 38.2904 21.0416 40.906C21.2823 41.2631 21.3715 41.647 21.2645 42.0041C21.1753 42.2897 20.9614 42.5575 20.5781 42.7807C18.4831 44.0216 15.889 44.8072 13.5177 45.3606C13.2057 43.9412 13.0898 42.5397 13.2235 41.1649C11.5298 40.5043 10.3441 39.5402 9.40808 38.1743Z" fill="url(#paint0_radial_332_280)"/>
<path style="mix-blend-mode:multiply" d="M15.7732 35.9604C15.7732 36.7996 13.5267 37.4245 11.6814 37.7994C12.5194 38.835 13.598 39.8616 14.8639 40.7989C16.4507 41.9773 18.0999 42.8343 19.5886 43.3163C19.9333 43.1497 20.2632 42.9712 20.5782 42.7807C20.9615 42.5575 21.1754 42.2897 21.2646 42.0041C21.3716 41.647 21.2824 41.2631 21.0417 40.906C19.3212 38.2904 18.1177 37.2281 15.5147 35.4873C15.684 35.6391 15.7732 35.7998 15.7732 35.9604Z" fill="url(#paint1_radial_332_280)"/>
<path d="M18.1266 41.0576C18.8487 41.5486 21.4874 40.6737 21.2645 42.0039C21.3715 41.6468 21.2824 41.2629 21.0417 40.9058C19.3212 38.2902 17.0925 36.0406 14.4895 34.2998C14.6499 34.4516 14.7391 34.6123 14.7391 34.7729C14.7391 35.3175 13.8476 35.746 12.7333 36.0674C14.2577 37.9956 16.0762 39.6917 18.1266 41.0576Z" fill="#073072"/>
<path d="M52.7509 38.1743C51.8951 38.0761 46.3859 37.2727 46.3859 35.9604C46.3859 35.7998 46.4751 35.6391 46.6444 35.4873C44.0414 37.2281 42.8379 38.2904 41.1085 40.906C40.8767 41.2631 40.7875 41.647 40.8945 42.0041C40.9837 42.2897 41.1976 42.5575 41.5809 42.7807C43.6759 44.0216 46.27 44.8072 48.6324 45.3606C48.9533 43.9412 49.0692 42.5397 48.9355 41.1649C50.6293 40.5043 51.8149 39.5402 52.7509 38.1743Z" fill="url(#paint2_radial_332_280)"/>
<path style="mix-blend-mode:multiply" d="M46.3859 35.9604C46.3859 36.7996 48.6324 37.4245 50.4777 37.7994C49.6397 38.835 48.5611 39.8616 47.2952 40.7989C45.7084 41.9773 44.0592 42.8343 42.5615 43.3163C42.2228 43.1497 41.8959 42.9712 41.5809 42.7807C41.1976 42.5575 40.9837 42.2897 40.8945 42.0041C40.7875 41.647 40.8767 41.2631 41.1085 40.906C42.8379 38.2904 44.0414 37.2281 46.6444 35.4873C46.4751 35.6391 46.3859 35.7998 46.3859 35.9604Z" fill="url(#paint3_radial_332_280)"/>
<path d="M44.0325 41.0576C43.3104 41.5486 40.6717 40.6737 40.8945 42.0039C40.7875 41.6468 40.8767 41.2629 41.1085 40.9058C42.8379 38.2902 45.0666 36.0406 47.6696 34.2998C47.5002 34.4516 47.42 34.6123 47.42 34.7729C47.42 35.3175 48.3115 35.746 49.4258 36.0674C47.9014 37.9956 46.0828 39.6917 44.0325 41.0576Z" fill="#073072"/>
<path d="M49.9338 26.8014V32.0863C52.421 31.6488 54.4892 31.1578 56.1027 29.9259C57.3775 28.9618 58.6434 25.2035 58.5186 23.5877C56.7268 23.4806 53.0183 24.284 51.2265 25.3999C50.7896 25.6677 50.1745 26.3372 49.9338 26.8014Z" fill="url(#paint4_radial_332_280)"/>
<path d="M49.9338 20.9271V26.0602C52.9291 25.5335 55.7016 25.1764 57.636 23.7034C59.1694 22.534 60.3996 18.9989 60.2569 17.0617C58.0996 16.9367 53.6423 17.9008 51.485 19.231C50.9679 19.5613 50.228 20.3647 49.9338 20.9271Z" fill="url(#paint5_radial_332_280)"/>
<path d="M49.9338 15.0448L49.9517 20.0261C53.4462 19.4191 56.6822 18.9995 58.9465 17.2766C60.7294 15.9197 62.1557 12.8041 61.9864 10.5366C59.4635 10.3938 54.2663 11.5186 51.7435 13.0808C51.1373 13.4558 50.2726 14.4021 49.9338 15.0448Z" fill="url(#paint6_radial_332_280)"/>
<path d="M12.2251 26.8014V32.0863C9.73795 31.6488 7.66976 31.1578 6.05622 29.9259C4.78143 28.9618 3.51556 25.2035 3.64037 23.5877C5.4322 23.4806 9.14067 24.284 10.9325 25.3999C11.3693 25.6677 11.9844 26.3372 12.2251 26.8014Z" fill="url(#paint7_radial_332_280)"/>
<path d="M12.2162 20.9271V26.0602C9.22981 25.5335 6.45737 25.1764 4.52291 23.7034C2.9896 22.534 1.75938 18.9989 1.90202 17.0617C4.05935 16.9367 8.51664 17.9008 10.674 19.231C11.191 19.5613 11.9309 20.3647 12.2162 20.9271Z" fill="url(#paint8_radial_332_280)"/>
<path d="M12.2162 15.0448L12.2073 20.0261C8.71279 19.4191 5.47679 18.9995 3.21249 17.2766C1.42957 15.9197 0.00323348 12.8041 0.172611 10.5366C2.69544 10.3938 7.89265 11.5186 10.4155 13.0808C11.0217 13.4558 11.8864 14.4021 12.2162 15.0448Z" fill="url(#paint9_radial_332_280)"/>
<path d="M50.3261 14.6428L49.7466 12.4557C49.3811 11.1166 48.8195 10.1078 47.8657 9.09015C46.4215 7.61719 43.551 5.87641 41.7413 4.78731C39.3433 3.35005 36.8829 2.0467 34.3155 0.912967C32.0958 -0.0243744 30.0543 -0.0243744 27.8435 0.912967C25.2761 2.0467 22.8157 3.35005 20.4087 4.78731C18.608 5.87641 15.7286 7.61719 14.2933 9.09015C13.3395 10.1078 12.7778 11.1166 12.4123 12.4557L11.8329 14.6428H50.3261Z" fill="url(#paint10_linear_332_280)"/>
<path d="M47.2327 10.1617C45.4052 8.81372 43.3014 7.43896 41.0193 6.11775C38.7282 4.79655 36.4906 3.66281 34.4135 2.75225C32.2116 1.7792 29.9473 1.7792 27.7454 2.75225C25.6683 3.66281 23.4308 4.79655 21.1397 6.11775C18.8576 7.43896 16.7537 8.81372 14.9263 10.1617C12.9829 11.59 11.8596 13.554 11.5922 15.9464C11.3426 18.205 11.2 20.7135 11.2 23.3559C11.2 25.9983 11.3426 28.5157 11.5922 30.7654C11.8596 33.1667 12.9829 35.1218 14.9263 36.5501C16.7537 37.8981 18.8576 39.2729 21.1397 40.5941C23.4308 41.9153 25.6683 43.049 27.7454 43.9596C29.9473 44.9326 32.2116 44.9326 34.4135 43.9596C36.4906 43.049 38.7282 41.9153 41.0193 40.5941C43.3014 39.2729 45.4052 37.8981 47.2327 36.5501C49.1672 35.1218 50.2994 33.1667 50.5668 30.7654C50.8164 28.5157 50.959 25.9983 50.959 23.3559C50.959 20.7135 50.8164 18.205 50.5668 15.9464C50.2994 13.554 49.1672 11.59 47.2327 10.1617Z" fill="url(#paint11_radial_332_280)"/>
<path d="M44.6743 13.6426C42.8111 12.2768 40.8588 11.018 38.862 9.86645C36.8562 8.70593 34.7969 7.64361 32.6841 6.70627C31.5787 6.22421 30.5803 6.22421 29.4749 6.70627C27.3621 7.64361 25.3029 8.70593 23.2971 9.86645C21.3002 11.018 19.3479 12.2768 17.4848 13.6426C16.5131 14.3568 16.0139 15.2316 15.8801 16.4189C15.6305 18.7221 15.5236 21.0431 15.5236 23.3552C15.5236 25.6673 15.6305 27.9973 15.8801 30.2916C16.0139 31.4878 16.5131 32.3537 17.4848 33.0679C19.3479 34.4337 21.3002 35.6924 23.2971 36.853C25.3029 38.0045 27.3621 39.0758 29.4749 40.0042C30.5803 40.4863 31.5787 40.4863 32.6841 40.0042C34.7969 39.0758 36.8562 38.0045 38.862 36.853C40.8588 35.6924 42.8111 34.4337 44.6743 33.0679C45.637 32.3537 46.1452 31.4878 46.2789 30.2916C46.5285 27.9973 46.6355 25.6673 46.6355 23.3552C46.6355 21.0431 46.5285 18.7221 46.2789 16.4189C46.1452 15.2316 45.637 14.3568 44.6743 13.6426Z" fill="url(#paint12_radial_332_280)"/>
<path d="M29.4481 38.8529C27.2997 37.9066 25.1959 36.8264 23.1544 35.648C21.1219 34.4697 19.125 33.1931 17.2352 31.7916C16.5666 31.3006 16.1208 30.7382 15.8534 30.0508C15.8653 30.1281 15.8742 30.2085 15.8801 30.2918C16.0139 31.488 16.5131 32.354 17.4848 33.0681C19.3479 34.434 21.3002 35.6927 23.2971 36.8532C25.3029 38.0048 27.3621 39.076 29.4749 40.0045C30.5803 40.4865 31.5787 40.4865 32.6841 40.0045C34.7969 39.076 36.8562 38.0048 38.862 36.8532C40.8588 35.6927 42.8111 34.434 44.6743 33.0681C45.637 32.354 46.1452 31.488 46.2789 30.2918C46.2848 30.2085 46.2937 30.1281 46.3056 30.0508C46.0382 30.7382 45.5925 31.3006 44.9239 31.7916C43.0251 33.1931 41.0371 34.4697 39.0046 35.648C36.9631 36.8264 34.8593 37.9066 32.7109 38.8529C31.5876 39.3439 30.5625 39.3439 29.4481 38.8529Z" fill="url(#paint13_linear_332_280)"/>
<path d="M30.928 30.3185C29.466 30.3185 28.2239 30.0507 27.2017 29.5151C26.1735 28.9795 25.395 28.2445 24.8661 27.3101C24.7175 27.0542 24.6432 26.712 24.6432 26.2835C24.6432 25.7419 24.8393 25.2748 25.2316 24.882C25.6238 24.4892 26.0992 24.2928 26.6579 24.2928C27.062 24.2928 27.4305 24.4088 27.7633 24.6409C28.0961 24.879 28.3368 25.1795 28.4854 25.5426C28.9371 26.596 29.7453 27.1227 30.9101 27.1227C31.6649 27.1227 32.2652 26.9173 32.7109 26.5067C33.1566 26.0901 33.3795 25.5574 33.3795 24.9087C33.3795 24.272 33.1893 23.772 32.809 23.409C32.4345 23.046 31.9591 22.8644 31.3826 22.8644C31.2459 22.8644 31.1419 22.8734 31.0706 22.8912C30.6308 22.9329 30.2267 22.8228 29.8582 22.5609C29.4898 22.2991 29.2283 21.9479 29.0737 21.5075C29.0321 21.3409 29.0113 21.1891 29.0113 21.0523C29.0113 20.6595 29.151 20.3262 29.4303 20.0524C29.7096 19.7846 30.0365 19.6507 30.4109 19.6507H30.7943C31.442 19.6507 31.971 19.49 32.3811 19.1687C32.7852 18.8532 32.9872 18.3563 32.9872 17.6778C32.9872 17.0589 32.7911 16.5768 32.3989 16.2316C32.0066 15.8805 31.5104 15.705 30.9101 15.705C29.8701 15.705 29.1302 16.1751 28.6904 17.1154C28.5418 17.4428 28.313 17.7165 28.004 17.9367C27.6949 18.1569 27.3503 18.267 26.9699 18.267C26.441 18.267 25.9893 18.0825 25.6149 17.7135C25.2405 17.3446 25.0533 16.8952 25.0533 16.3656C25.0533 16.0442 25.1424 15.7198 25.3207 15.3925C25.8496 14.4819 26.6044 13.7708 27.585 13.2589C28.5656 12.7471 29.7483 12.4912 31.133 12.4912C32.3395 12.4912 33.3884 12.6936 34.2799 13.0982C35.1713 13.5089 35.8548 14.0624 36.3302 14.7587C36.8057 15.449 37.0434 16.2168 37.0434 17.0619C37.0434 18.0319 36.7908 18.8324 36.2856 19.4632C35.7805 20.1 35.0881 20.5702 34.2085 20.8737V20.9362C35.2367 21.1802 36.0449 21.6712 36.6333 22.4092C37.2217 23.1531 37.5159 24.0518 37.5159 25.1051C37.5159 26.0752 37.2455 26.956 36.7046 27.7476C36.1579 28.5391 35.3882 29.167 34.3958 29.6312C33.3973 30.0894 32.2414 30.3185 30.928 30.3185Z" fill="url(#paint14_linear_332_280)"/>
<path d="M30.928 29.6935C29.466 29.6935 28.2239 29.4257 27.2017 28.8901C26.1735 28.3545 25.395 27.6195 24.8661 26.6851C24.7175 26.4233 24.6432 26.0811 24.6432 25.6585C24.6432 25.1169 24.8393 24.6498 25.2316 24.257C25.6238 23.8642 26.0992 23.6678 26.6579 23.6678C27.062 23.6678 27.4305 23.7838 27.7633 24.0159C28.0961 24.254 28.3368 24.5545 28.4854 24.9176C28.9371 25.971 29.7453 26.4977 30.9101 26.4977C31.6649 26.4977 32.2652 26.2894 32.7109 25.8728C33.1566 25.4621 33.3795 24.9324 33.3795 24.2837C33.3795 23.647 33.1893 23.147 32.809 22.784C32.4345 22.421 31.9591 22.2394 31.3826 22.2394C31.2459 22.2394 31.1419 22.2484 31.0706 22.2662C30.6308 22.3079 30.2267 22.1978 29.8582 21.9359C29.4898 21.6681 29.2283 21.317 29.0737 20.8825C29.0321 20.7159 29.0113 20.5641 29.0113 20.4273C29.0113 20.0345 29.151 19.7012 29.4303 19.4274C29.7096 19.1596 30.0365 19.0257 30.4109 19.0257H30.7943C31.442 19.0257 31.971 18.865 32.3811 18.5437C32.7852 18.2282 32.9872 17.7313 32.9872 17.0528C32.9872 16.4339 32.7911 15.9489 32.3989 15.5977C32.0066 15.2525 31.5104 15.08 30.9101 15.08C29.8701 15.08 29.1302 15.5471 28.6904 16.4815C28.5418 16.8148 28.313 17.0915 28.004 17.3117C27.6949 17.5319 27.3503 17.642 26.9699 17.642C26.441 17.642 25.9893 17.4575 25.6149 17.0885C25.2405 16.7196 25.0533 16.2702 25.0533 15.7406C25.0533 15.4192 25.1424 15.0948 25.3207 14.7675C25.8496 13.8569 26.6044 13.1458 27.585 12.6339C28.5656 12.1221 29.7483 11.8662 31.133 11.8662C32.3395 11.8662 33.3884 12.0686 34.2799 12.4732C35.1713 12.8839 35.8548 13.4344 36.3302 14.1248C36.8057 14.8211 37.0434 15.5918 37.0434 16.4369C37.0434 17.4069 36.7908 18.2074 36.2856 18.8382C35.7805 19.475 35.0881 19.9452 34.2085 20.2487V20.3112C35.2367 20.5552 36.0449 21.0462 36.6333 21.7842C37.2217 22.5281 37.5159 23.4268 37.5159 24.4801C37.5159 25.4502 37.2455 26.331 36.7046 27.1226C36.1579 27.9141 35.3882 28.542 34.3958 29.0062C33.3973 29.4644 32.2414 29.6935 30.928 29.6935Z" fill="url(#paint15_linear_332_280)"/>
<path d="M30.9279 29.2471C29.5462 29.2471 28.3605 28.9972 27.4067 28.4973C26.4617 27.9973 25.7396 27.3189 25.2582 26.4619C25.1453 26.2714 25.0889 26.0036 25.0889 25.6585C25.0889 25.2389 25.2404 24.8818 25.5435 24.5694C25.8555 24.2658 26.2121 24.1141 26.6578 24.1141C26.9698 24.1141 27.2462 24.2033 27.5047 24.3819C27.7722 24.5693 27.9594 24.8015 28.0753 25.0871C28.6012 26.3012 29.5729 26.9439 30.9101 26.9439C31.7748 26.9439 32.4791 26.694 33.0139 26.203C33.5488 25.7031 33.8252 25.0514 33.8252 24.2837C33.8252 23.5249 33.5845 22.9089 33.1209 22.4626C32.6574 22.0162 32.0779 21.793 31.3826 21.793C31.2102 21.793 31.0765 21.8049 30.9814 21.8287C30.9814 21.8198 30.919 21.8287 30.8744 21.8287C30.607 21.8287 30.3574 21.7395 30.1167 21.5699C29.8225 21.3645 29.6175 21.0878 29.5016 20.7396C29.4748 20.6325 29.457 20.5254 29.457 20.4272C29.457 20.1505 29.5462 19.9362 29.7423 19.7487C29.9384 19.5613 30.1524 19.472 30.4109 19.472H30.7942C31.543 19.472 32.1671 19.2756 32.6574 18.9007C33.1744 18.499 33.4329 17.8741 33.4329 17.0528C33.4329 16.3029 33.1922 15.7048 32.693 15.2674C32.2205 14.8478 31.6233 14.6335 30.9101 14.6335C29.6977 14.6335 28.7973 15.2049 28.2892 16.294C28.1644 16.5618 27.9861 16.776 27.7454 16.9456C27.5136 17.1153 27.2551 17.1956 26.9698 17.1956C26.5598 17.1956 26.221 17.0528 25.9268 16.7671C25.6327 16.4814 25.4989 16.1422 25.4989 15.7405C25.4989 15.4995 25.5703 15.2406 25.7129 14.9728C26.1854 14.1604 26.8896 13.4998 27.79 13.0267C28.6993 12.5535 29.8314 12.3125 31.133 12.3125C32.274 12.3125 33.2635 12.5 34.0926 12.8838C34.9038 13.2498 35.5368 13.7587 35.9647 14.3836C36.3837 15.0085 36.5976 15.678 36.5976 16.4368C36.5976 17.3116 36.3747 18.008 35.9379 18.5614C35.4833 19.1238 34.8593 19.5523 34.0659 19.8202L33.7628 19.9273V20.5968L34.1104 20.7486C35.0465 20.9717 35.7596 21.4002 36.2856 22.0698C36.8116 22.7304 37.0701 23.5249 37.0701 24.4801C37.0701 25.3549 36.8205 26.1584 36.3302 26.8725C35.8399 27.5956 35.1267 28.1759 34.2085 28.5955C33.2725 29.0329 32.176 29.2471 30.9279 29.2471Z" fill="url(#paint16_linear_332_280)"/>
<path style="mix-blend-mode:screen" d="M25.6505 14.9461C25.5168 15.1961 25.4276 15.455 25.4276 15.7406C25.4276 16.1691 25.5702 16.5173 25.8823 16.8119C26.1854 17.1154 26.5419 17.2671 26.9698 17.2671C27.2729 17.2671 27.5404 17.1779 27.7811 16.9993C28.0307 16.8297 28.2179 16.6065 28.3516 16.3298C28.8508 15.2496 29.7244 14.7051 30.9101 14.7051C31.5609 14.7051 32.1581 14.8836 32.6484 15.321C33.1655 15.7674 33.3705 16.3834 33.3705 17.0529C33.3705 17.7403 33.1744 18.4098 32.6128 18.8472C32.0868 19.2579 31.445 19.4007 30.7942 19.4007H30.4109C30.1256 19.4007 29.8938 19.5078 29.6888 19.7042C29.4838 19.9006 29.3857 20.1417 29.3857 20.4273C29.3857 20.5434 29.4124 20.6594 29.4392 20.7666C29.4392 20.7755 34.4759 20.7755 34.4759 20.7755C34.363 20.7398 34.2471 20.71 34.1283 20.6862L33.8341 20.6148V19.981L34.0926 19.8917C34.8325 19.6328 35.4922 19.2311 35.9914 18.6062C36.4817 17.9813 36.66 17.2225 36.66 16.4369C36.66 15.6692 36.4461 14.9729 36.0182 14.3391C35.5457 13.6517 34.8771 13.1607 34.1193 12.8215C33.1922 12.393 32.1581 12.2412 31.133 12.2412C29.9741 12.2412 28.7973 12.4287 27.7543 12.9732C26.8718 13.4374 26.1586 14.0802 25.6505 14.9461Z" fill="url(#paint17_linear_332_280)"/>
<path d="M31.0795 28.667C38.8797 28.667 45.7975 30.2025 50.1211 32.577C50.4598 32.7556 50.6738 33.0413 50.7629 33.4162C50.861 33.7822 50.7986 34.1304 50.5935 34.4517C48.8641 37.0674 46.6354 39.317 44.0324 41.0578C44.9149 40.4596 44.389 39.5491 43.6936 39.0849C41.8126 37.844 36.874 36.9513 31.0795 36.9513C30.9279 34.0946 30.9279 31.3362 31.0795 28.667Z" fill="url(#paint18_radial_332_280)"/>
<path d="M31.0795 28.667C23.2793 28.667 16.3616 30.2025 12.038 32.577C11.6992 32.7556 11.4853 33.0413 11.3872 33.4162C11.2981 33.7822 11.3605 34.1304 11.5655 34.4517C13.2949 37.0674 15.5236 39.317 18.1266 41.0578C17.2352 40.4596 17.7701 39.5491 18.4654 39.0849C20.3464 37.844 25.2851 36.9513 31.0795 36.9513C31.2311 34.0946 31.2311 31.3362 31.0795 28.667Z" fill="url(#paint19_radial_332_280)"/>
<path style="mix-blend-mode:screen" d="M18.5367 39.0403C16.2545 37.0138 14.0348 34.4428 12.7511 32.2021C12.5074 32.3271 12.2697 32.4521 12.0379 32.5771C11.824 32.6961 11.6576 32.8508 11.5387 33.0413C11.5744 33.1484 11.61 33.2377 11.6635 33.327C12.6084 34.9428 15.7018 38.4689 17.7789 39.8259C17.9215 39.5402 18.1801 39.2724 18.4653 39.0849C18.4891 39.073 18.5129 39.0581 18.5367 39.0403Z" fill="url(#paint20_radial_332_280)"/>
<path style="mix-blend-mode:screen" d="M43.6223 39.0403C45.9044 37.0138 48.1242 34.4428 49.4079 32.2021C49.6516 32.3271 49.8893 32.4521 50.1211 32.5771C50.335 32.6961 50.5014 32.8508 50.6203 33.0413C50.5846 33.1484 50.5489 33.2377 50.4955 33.327C49.5505 34.9428 46.4572 38.4689 44.3801 39.8259C44.2374 39.5402 43.9789 39.2724 43.6936 39.0849C43.6699 39.073 43.6461 39.0581 43.6223 39.0403Z" fill="url(#paint21_radial_332_280)"/>
<path style="mix-blend-mode:screen" d="M31.0794 37.0415C36.6511 37.0415 41.5808 37.836 43.4618 39.0769C43.8719 39.3536 44.0769 39.7196 44.0769 40.041C44.0769 40.2463 43.9699 40.532 43.7114 40.648C42.9269 41.0319 41.4471 40.7194 40.9925 41.3622C40.627 41.8889 40.9301 42.3442 41.6432 42.8441C43.2122 43.951 45.2982 44.8259 48.1509 45.6115C48.4094 45.424 48.6323 45.3615 48.6323 45.3615C46.0649 44.7366 43.7471 43.6743 41.8304 42.4959C41.5273 42.3174 41.2421 42.0674 41.1351 41.746C41.1173 41.5943 41.1708 41.5229 41.1886 41.505C41.67 40.9426 42.9002 41.3711 43.8808 40.9605C44.4246 40.7373 44.4959 40.2909 44.5137 40.0231C44.5494 39.55 44.2017 38.934 43.756 38.6394C41.7948 37.3361 36.7491 36.5059 31.0794 36.5059C25.4098 36.5059 20.3641 37.3361 18.4029 38.6394C17.9572 38.934 17.6095 39.55 17.6452 40.0231C17.663 40.2909 17.7343 40.7373 18.2692 40.9605C19.2587 41.3711 20.4889 40.9426 20.9703 41.505C20.9881 41.5229 21.0416 41.5943 21.0238 41.746C20.9168 42.0674 20.6226 42.3174 20.3284 42.4959C18.4118 43.6743 16.094 44.7366 13.5177 45.3615C13.5177 45.3615 13.7495 45.424 14.008 45.6115C16.8518 44.8259 18.9467 43.951 20.5157 42.8441C21.2288 42.3442 21.4695 41.7639 21.1308 41.3443C20.6315 40.7373 19.3389 41.0854 18.4296 40.5945C18.18 40.4516 18.0731 40.2463 18.082 40.041C18.082 39.7196 18.287 39.3536 18.6971 39.0769C20.5781 37.836 25.5078 37.0415 31.0794 37.0415Z" fill="url(#paint22_radial_332_280)"/>
<path d="M31.0794 37.2191C36.6511 37.2191 41.5808 38.0136 43.4618 39.2634C43.8719 39.5312 44.0769 39.8972 44.0769 40.2186C44.0769 40.4328 43.9878 40.6471 43.7292 40.7721C42.9359 41.147 41.4382 40.8167 40.8944 41.3791C40.4219 41.879 40.9301 42.5218 41.6432 43.0306C43.2122 44.1376 45.2982 45.0124 48.1509 45.7891C48.4094 45.6016 48.6323 45.3606 48.6323 45.3606C46.0649 44.7357 43.7471 43.8519 41.8304 42.6824C41.5273 42.495 41.2421 42.2539 41.1351 41.9326C41.1173 41.7719 41.1708 41.7094 41.1886 41.6826C41.67 41.1202 42.9002 41.5576 43.8808 41.1381C44.4246 40.9149 44.4959 40.4685 44.5137 40.2007C44.5494 39.7365 44.2017 39.1116 43.756 38.817C41.7948 37.5137 36.7491 36.6924 31.0794 36.6924C25.4098 36.6924 20.3641 37.5137 18.4029 38.817C17.9572 39.1116 17.6095 39.7365 17.6452 40.2007C17.663 40.4685 17.7343 40.9149 18.2692 41.1381C19.2587 41.5576 20.4889 41.1202 20.9703 41.6826C20.9881 41.7094 21.0416 41.7719 21.0238 41.9326C20.9168 42.2539 20.6226 42.495 20.3284 42.6824C18.4118 43.8519 16.094 44.7357 13.5177 45.3606C13.5177 45.3606 13.7495 45.6016 14.008 45.7891C16.8518 45.0124 18.9467 44.1376 20.5157 43.0306C21.2288 42.5218 21.737 41.879 21.2645 41.3791C20.7118 40.8167 19.223 41.147 18.4296 40.7721C18.1711 40.6471 18.0731 40.4328 18.082 40.2186C18.082 39.8972 18.287 39.5312 18.6971 39.2634C20.5781 38.0136 25.5078 37.2191 31.0794 37.2191Z" fill="url(#paint23_radial_332_280)"/>
<path d="M21.7638 36.0504L24.1797 35.7112C24.2866 35.7023 24.3669 35.6487 24.4293 35.5684C24.4917 35.4791 24.5184 35.3809 24.5006 35.2738C24.4917 35.1666 24.4382 35.0863 24.3579 35.0238C24.2688 34.9613 24.1797 34.9345 24.0727 34.9524L22.2274 35.2023L21.7549 31.7476C21.7371 31.6137 21.6747 31.5065 21.5588 31.4173C21.4518 31.3369 21.327 31.3012 21.1844 31.3191C21.0506 31.3369 20.9437 31.3994 20.8545 31.5155C20.7743 31.6226 20.7386 31.7476 20.7565 31.8904L21.2824 35.6844C21.2913 35.7915 21.3359 35.9165 21.425 35.9879C21.5231 36.0593 21.6479 36.0593 21.7638 36.0504ZM25.7397 35.5684L28.2804 35.3898C28.3873 35.3898 28.4676 35.3452 28.5389 35.2648C28.6102 35.1845 28.637 35.0952 28.628 34.9881C28.6191 34.881 28.5835 34.7917 28.5032 34.7292C28.423 34.6578 28.3339 34.631 28.2269 34.631L26.2478 34.7738L26.1587 33.5508L27.7098 33.4437C27.8168 33.4348 27.897 33.3901 27.9594 33.3098C28.0308 33.2384 28.0575 33.1491 28.0486 33.042C28.0397 32.9438 28.004 32.8635 27.9238 32.801C27.8525 32.7295 27.7633 32.7028 27.6653 32.7117L26.1141 32.8099L26.025 31.5869L27.8792 31.4619C27.9862 31.453 28.0664 31.4173 28.1377 31.3369C28.2091 31.2566 28.2358 31.1673 28.2269 31.0602C28.2269 30.9531 28.1823 30.8727 28.1021 30.8013C28.0218 30.7299 27.9327 30.6942 27.8257 30.7031L25.4188 30.8727C25.3029 30.8816 25.1781 30.9084 25.1068 30.9977C25.0265 31.087 25.0087 31.2119 25.0176 31.328L25.2762 35.1666C25.2851 35.2827 25.3207 35.4077 25.4099 35.4791C25.499 35.5594 25.6238 35.5773 25.7397 35.5684ZM29.1451 31.2387L30.3664 34.8274C30.4288 34.997 30.5268 35.1309 30.6784 35.2381C30.821 35.3452 30.9845 35.3987 31.1687 35.3987C31.3529 35.3987 31.5193 35.3452 31.6679 35.2381C31.8165 35.1309 31.9146 34.994 31.9621 34.8274L33.1656 31.1584C33.1834 31.1108 33.1923 31.0632 33.1923 31.0156C33.1923 30.8995 33.1477 30.7924 33.0586 30.7031C32.9694 30.6228 32.8625 30.5781 32.7377 30.5781C32.6426 30.5781 32.5564 30.6079 32.4791 30.6674C32.4019 30.7269 32.3484 30.8043 32.3187 30.8995L31.5431 33.5151C31.4807 33.7026 31.4361 33.899 31.4005 34.0865C31.3886 34.1281 31.3797 34.1638 31.3737 34.1936C31.3678 34.2471 31.3589 34.2977 31.347 34.3453L31.3202 34.4346H31.0974L31.0706 34.3453C31.0528 34.2977 31.0409 34.2501 31.035 34.2025C31.029 34.1668 31.0231 34.1311 31.0171 34.0954C30.9726 33.899 30.9191 33.7026 30.8656 33.5151L30.0633 30.9352C30.0365 30.8281 29.9831 30.7567 29.8939 30.6942C29.8107 30.6287 29.7156 30.596 29.6086 30.596C29.466 30.596 29.359 30.6406 29.261 30.7388C29.1629 30.837 29.1183 30.9441 29.1183 31.078C29.1183 31.1316 29.1273 31.1852 29.1451 31.2387ZM34.4225 35.4166L36.9632 35.5862C37.0702 35.5951 37.1593 35.5683 37.2395 35.4969C37.3198 35.4255 37.3554 35.3362 37.3643 35.2291C37.3733 35.1309 37.3465 35.0417 37.2752 34.9613C37.2039 34.881 37.1236 34.8363 37.0167 34.8274L35.0287 34.6935L35.1179 33.4705L36.669 33.5776C36.7671 33.5865 36.8562 33.5508 36.9275 33.4883C37.0078 33.4169 37.0434 33.3366 37.0523 33.2295C37.0612 33.1313 37.0345 33.042 36.9632 32.9706C36.9008 32.8902 36.8205 32.8545 36.7136 32.8456L35.1624 32.7385L35.2516 31.5155L37.0969 31.6404C37.2039 31.6494 37.293 31.6226 37.3733 31.5512C37.4535 31.4798 37.4981 31.3994 37.4981 31.2923C37.507 31.1852 37.4802 31.0959 37.4089 31.0156C37.3376 30.9352 37.2574 30.8906 37.1504 30.8816L34.7435 30.721C34.6276 30.712 34.5028 30.721 34.4136 30.8013C34.3245 30.8816 34.2888 31.0066 34.2799 31.1137L34.0214 34.9613C34.0125 35.0684 34.0303 35.1934 34.1016 35.2827C34.1818 35.3809 34.3066 35.4077 34.4225 35.4166ZM38.55 35.7647L40.9658 36.095C41.0728 36.1129 41.162 36.0861 41.2511 36.0236C41.3402 35.9522 41.3848 35.8719 41.4026 35.7647C41.4116 35.6576 41.3937 35.5684 41.3224 35.4791C41.26 35.3898 41.1798 35.3452 41.0728 35.3273L39.2275 35.0774L39.7 31.6226C39.7178 31.4887 39.691 31.3637 39.6019 31.2477C39.5217 31.1405 39.4147 31.078 39.2721 31.0602C39.1294 31.0423 39.0135 31.0691 38.8976 31.1584C38.7907 31.2387 38.7283 31.3459 38.7104 31.4887L38.1845 35.2827C38.1667 35.3898 38.1756 35.5148 38.2469 35.613C38.3182 35.7112 38.443 35.7469 38.55 35.7647Z" fill="url(#paint24_radial_332_280)"/>
<path d="M21.7816 35.8269C21.6033 35.8507 21.4607 35.8239 21.3537 35.7465C21.2408 35.6632 21.1724 35.5323 21.1487 35.3537L20.6316 31.5597C20.6078 31.3872 20.6494 31.2294 20.7564 31.0866C20.8574 30.9497 20.9941 30.8694 21.1665 30.8456C21.3448 30.8218 21.5023 30.8634 21.639 30.9706C21.7756 31.0717 21.8559 31.2116 21.8796 31.3901L22.3343 34.711L24.0548 34.4789C24.1915 34.4551 24.3193 34.4878 24.4381 34.5771C24.5511 34.6604 24.6164 34.7735 24.6343 34.9163C24.6521 35.0591 24.6194 35.1871 24.5362 35.3002C24.447 35.4133 24.3341 35.4787 24.1974 35.4966L21.7816 35.8269ZM25.7486 35.3448C25.5643 35.3567 25.4217 35.318 25.3207 35.2288C25.2196 35.1395 25.1632 35.0056 25.1513 34.827L24.8839 30.9884C24.872 30.8099 24.9106 30.67 24.9998 30.5688C25.0948 30.4617 25.2315 30.4022 25.4098 30.3903L27.8168 30.2296C27.9594 30.2177 28.0812 30.2594 28.1823 30.3546C28.2892 30.4498 28.3487 30.5659 28.3606 30.7027C28.3665 30.8396 28.3249 30.9616 28.2358 31.0688C28.1466 31.1759 28.0307 31.2354 27.8881 31.2473L26.1676 31.3633L26.23 32.3275L27.6563 32.2293C27.787 32.2233 27.9059 32.265 28.0129 32.3543C28.1139 32.4435 28.1674 32.5566 28.1734 32.6935C28.1852 32.8244 28.1466 32.9434 28.0575 33.0506C27.9683 33.1577 27.8554 33.2142 27.7187 33.2202L26.3013 33.3184L26.3637 34.2825L28.2179 34.1575C28.3606 34.1456 28.4824 34.1873 28.5834 34.2825C28.6904 34.3718 28.7498 34.4878 28.7617 34.6307C28.7677 34.7675 28.7261 34.8895 28.6369 34.9967C28.5418 35.1038 28.4259 35.1633 28.2892 35.1752L25.7486 35.3448ZM31.1687 35.1752C30.9606 35.1752 30.7705 35.1157 30.5981 34.9967C30.4317 34.8717 30.3129 34.711 30.2415 34.5146L29.0202 30.9259C29.0024 30.8486 28.9935 30.7831 28.9935 30.7295C28.9876 30.5629 29.047 30.4201 29.1718 30.301C29.2906 30.1761 29.4362 30.1136 29.6086 30.1136C29.7393 30.1136 29.8612 30.1522 29.9741 30.2296C30.0811 30.3129 30.1524 30.4171 30.188 30.5421L30.9904 33.122C31.0438 33.2886 31.0944 33.485 31.1419 33.7112C31.1479 33.7469 31.1568 33.7856 31.1687 33.8272C31.1746 33.8689 31.1835 33.9105 31.1954 33.9522C31.2311 33.9076 31.24 33.8629 31.2489 33.8272C31.2548 33.7856 31.2637 33.7469 31.2756 33.7112C31.3232 33.485 31.3707 33.2886 31.4183 33.122L32.1938 30.5064C32.2295 30.3873 32.2978 30.2891 32.3989 30.2118C32.4999 30.1344 32.6128 30.0957 32.7376 30.0957C32.8981 30.0957 33.0348 30.1522 33.1477 30.2653C33.2606 30.3724 33.3171 30.5064 33.3171 30.667C33.3171 30.7325 33.3082 30.795 33.2903 30.8545L32.0869 34.5057C32.0274 34.708 31.9145 34.8687 31.7481 34.9877C31.5758 35.1127 31.3826 35.1752 31.1687 35.1752ZM34.4136 35.1931C34.2353 35.1812 34.1016 35.1246 34.0124 35.0234C33.9233 34.9163 33.8846 34.7735 33.8965 34.5949L34.155 30.7563C34.1669 30.5778 34.2234 30.4439 34.3244 30.3546C34.4314 30.2653 34.574 30.2266 34.7523 30.2385L37.1593 30.3992C37.3019 30.4111 37.4178 30.4706 37.5069 30.5778C37.602 30.6849 37.6436 30.8069 37.6317 30.9438C37.6258 31.0807 37.5693 31.1967 37.4624 31.2919C37.3554 31.3872 37.2335 31.4288 37.0969 31.4169L35.3674 31.3009L35.305 32.265L36.7224 32.3632C36.8591 32.3751 36.9721 32.4316 37.0612 32.5328C37.1503 32.634 37.1919 32.753 37.186 32.8899C37.1741 33.0268 37.1177 33.1398 37.0166 33.2291C36.9156 33.3243 36.7967 33.366 36.66 33.3541L35.2337 33.2559L35.1713 34.22L37.0255 34.345C37.1622 34.3569 37.2781 34.4164 37.3732 34.5235C37.4624 34.6247 37.504 34.7467 37.498 34.8895C37.4861 35.0264 37.4267 35.1425 37.3197 35.2377C37.2187 35.3329 37.0969 35.3746 36.9542 35.3627L34.4136 35.1931ZM38.541 35.5412C38.3627 35.5174 38.232 35.4519 38.1488 35.3448C38.0656 35.2377 38.0359 35.0949 38.0596 34.9163L38.5856 31.1223C38.6094 30.9497 38.6896 30.8099 38.8263 30.7027C38.963 30.5956 39.1175 30.554 39.2898 30.5778C39.4681 30.6016 39.6078 30.6849 39.7088 30.8277C39.8158 30.9646 39.8574 31.1193 39.8336 31.2919L39.379 34.6128L41.0906 34.8538C41.2332 34.8717 41.3461 34.9371 41.4293 35.0502C41.5185 35.1633 41.5512 35.2913 41.5274 35.4341C41.5096 35.5769 41.4442 35.69 41.3313 35.7733C41.2184 35.8626 41.0936 35.8983 40.9569 35.8804L38.541 35.5412Z" fill="url(#paint25_radial_332_280)"/>
<path d="M21.7638 35.7018L24.1797 35.3715C24.2866 35.3536 24.3669 35.309 24.4293 35.2197C24.4917 35.1305 24.5184 35.0412 24.5006 34.9341C24.4917 34.8269 24.4382 34.7466 24.3579 34.6752C24.2688 34.6127 24.1797 34.5859 24.0727 34.6038L22.2274 34.8537L21.7549 31.4079C21.7371 31.265 21.6747 31.1579 21.5588 31.0686C21.4518 30.9883 21.327 30.9526 21.1844 30.9794C21.0506 30.9972 20.9437 31.0597 20.8545 31.1668C20.7743 31.2829 20.7386 31.3989 20.7565 31.5418L21.2824 35.3358C21.2913 35.4518 21.3359 35.5679 21.425 35.6393C21.5231 35.7107 21.6479 35.7196 21.7638 35.7018ZM25.7397 35.2197L28.2804 35.0501C28.3873 35.0412 28.4676 34.9965 28.5389 34.9162C28.6102 34.8359 28.637 34.7466 28.628 34.6395C28.6191 34.5323 28.5835 34.452 28.5032 34.3806C28.423 34.3092 28.3339 34.2824 28.2269 34.2913L26.2478 34.4252L26.1587 33.2022L27.7098 33.0951C27.8168 33.0862 27.897 33.0415 27.9594 32.9701C28.0308 32.8898 28.0575 32.8005 28.0486 32.7023C28.0397 32.5952 28.004 32.5148 27.9238 32.4523C27.8525 32.3809 27.7633 32.3541 27.6653 32.3631L26.1141 32.4702L26.025 31.2472L27.8792 31.1133C27.9862 31.1133 28.0664 31.0686 28.1377 30.9883C28.2091 30.9079 28.2358 30.8187 28.2269 30.7116C28.2269 30.6134 28.1823 30.5241 28.1021 30.4527C28.0218 30.3813 27.9327 30.3545 27.8257 30.3545L25.4188 30.5241C25.3029 30.533 25.1781 30.5598 25.1068 30.6491C25.0265 30.7383 25.0087 30.8633 25.0176 30.9794L25.2762 34.818C25.2851 34.9341 25.3207 35.059 25.4099 35.1394C25.499 35.2108 25.6238 35.2286 25.7397 35.2197ZM29.1451 30.8901L30.3664 34.4788C30.4288 34.6573 30.5268 34.7912 30.6784 34.8983C30.821 35.0055 30.9845 35.0561 31.1687 35.0501C31.3529 35.0501 31.5193 34.9965 31.6679 34.8894C31.8165 34.7882 31.9146 34.6514 31.9621 34.4788L33.1656 30.8098C33.1834 30.7681 33.1923 30.7235 33.1923 30.6758C33.1923 30.5509 33.1477 30.4527 33.0586 30.3634C32.9694 30.2741 32.8625 30.2295 32.7377 30.2295C32.6426 30.2295 32.5564 30.2592 32.4791 30.3188C32.4019 30.3783 32.3484 30.4556 32.3187 30.5509L31.5431 33.1665C31.4807 33.354 31.4361 33.5504 31.4005 33.7468C31.3886 33.7825 31.3797 33.8182 31.3737 33.8539C31.3678 33.9015 31.3589 33.9491 31.347 33.9967L31.3202 34.086H31.0974L31.0706 33.9967C31.0528 33.9491 31.0409 33.9015 31.035 33.8539C31.029 33.8182 31.0231 33.7825 31.0171 33.7468C30.9726 33.5504 30.9191 33.3629 30.8656 33.1665L30.0633 30.5866C30.0365 30.4884 29.9831 30.408 29.8939 30.3455C29.8107 30.2801 29.7156 30.2473 29.6086 30.2473C29.466 30.2473 29.359 30.3009 29.261 30.3902C29.1629 30.4884 29.1183 30.5955 29.1183 30.7383C29.1183 30.783 29.1273 30.8455 29.1451 30.8901ZM34.4225 35.068L36.9632 35.2465C37.0702 35.2465 37.1593 35.2197 37.2395 35.1483C37.3198 35.0769 37.3554 34.9965 37.3643 34.8894C37.3733 34.7823 37.3465 34.693 37.2752 34.6127C37.2039 34.5323 37.1236 34.4877 37.0167 34.4877L35.0287 34.3449L35.1179 33.1219L36.669 33.229C36.7671 33.2379 36.8562 33.2111 36.9275 33.1397C37.0078 33.0683 37.0434 32.988 37.0523 32.8898C37.0612 32.7826 37.0345 32.7023 36.9632 32.6219C36.9008 32.5416 36.8205 32.5059 36.7136 32.497L35.1624 32.3898L35.2516 31.1668L37.0969 31.2918C37.2039 31.3007 37.293 31.274 37.3733 31.2025C37.4535 31.1311 37.4981 31.0508 37.4981 30.9437C37.507 30.8365 37.4802 30.7473 37.4089 30.6669C37.3376 30.5866 37.2574 30.5419 37.1504 30.533L34.7435 30.3723C34.6276 30.3634 34.5028 30.3813 34.4136 30.4527C34.3245 30.533 34.2888 30.658 34.2799 30.774L34.0214 34.6127C34.0125 34.7287 34.0303 34.8537 34.1016 34.943C34.1818 35.0323 34.3066 35.059 34.4225 35.068ZM38.55 35.4161L40.9658 35.7464C41.0728 35.7643 41.162 35.7375 41.2511 35.675C41.3402 35.6125 41.3848 35.5232 41.4026 35.4161C41.4116 35.309 41.3937 35.2197 41.3224 35.1305C41.26 35.0501 41.1798 34.9965 41.0728 34.9876L39.2275 34.7287L39.7 31.274C39.7178 31.1401 39.691 31.0151 39.6019 30.908C39.5217 30.7919 39.4147 30.7294 39.2721 30.7116C39.1294 30.6937 39.0135 30.7205 38.8976 30.8098C38.7907 30.8901 38.7283 31.0061 38.7104 31.1401L38.1845 34.9341C38.1667 35.0501 38.1756 35.1751 38.2469 35.2644C38.3182 35.3626 38.443 35.3983 38.55 35.4161Z" fill="url(#paint26_radial_332_280)"/>
<defs>
<radialGradient id="paint0_radial_332_280" cx="0" cy="0" r="1" gradientUnits="userSpaceOnUse" gradientTransform="translate(23.2385 35.2185) scale(14.1322 14.152)">
<stop stop-color="#0851A0"/>
<stop offset="1" stop-color="#268AF5"/>
</radialGradient>
<radialGradient id="paint1_radial_332_280" cx="0" cy="0" r="1" gradientUnits="userSpaceOnUse" gradientTransform="translate(25.997 25.7473) scale(18.9341 18.9605)">
<stop offset="0.71" stop-color="#095DB8"/>
<stop offset="1" stop-color="white"/>
</radialGradient>
<radialGradient id="paint2_radial_332_280" cx="0" cy="0" r="1" gradientUnits="userSpaceOnUse" gradientTransform="translate(38.9198 35.2185) rotate(180) scale(14.1322 14.152)">
<stop stop-color="#0851A0"/>
<stop offset="1" stop-color="#268AF5"/>
</radialGradient>
<radialGradient id="paint3_radial_332_280" cx="0" cy="0" r="1" gradientUnits="userSpaceOnUse" gradientTransform="translate(36.1614 25.7473) rotate(180) scale(18.9341 18.9605)">
<stop offset="0.71" stop-color="#095DB8"/>
<stop offset="1" stop-color="white"/>
</radialGradient>
<radialGradient id="paint4_radial_332_280" cx="0" cy="0" r="1" gradientUnits="userSpaceOnUse" gradientTransform="translate(59.2286 24.9342) scale(8.70296 8.71513)">
<stop stop-color="#B2B8D9"/>
<stop offset="1" stop-color="#4B568A"/>
</radialGradient>
<radialGradient id="paint5_radial_332_280" cx="0" cy="0" r="1" gradientUnits="userSpaceOnUse" gradientTransform="translate(60.8884 20.6313) scale(9.94967 9.96359)">
<stop stop-color="#B2B8D9"/>
<stop offset="1" stop-color="#4B568A"/>
</radialGradient>
<radialGradient id="paint6_radial_332_280" cx="0" cy="0" r="1" gradientUnits="userSpaceOnUse" gradientTransform="translate(59.5862 10.4048) scale(11.8171 11.8336)">
<stop stop-color="#B2B8D9"/>
<stop offset="1" stop-color="#4B568A"/>
</radialGradient>
<radialGradient id="paint7_radial_332_280" cx="0" cy="0" r="1" gradientUnits="userSpaceOnUse" gradientTransform="translate(2.9296 24.9342) rotate(180) scale(8.70296 8.71513)">
<stop stop-color="#B2B8D9"/>
<stop offset="1" stop-color="#4B568A"/>
</radialGradient>
<radialGradient id="paint8_radial_332_280" cx="0" cy="0" r="1" gradientUnits="userSpaceOnUse" gradientTransform="translate(1.26988 20.6313) rotate(180) scale(9.94967 9.96359)">
<stop stop-color="#B2B8D9"/>
<stop offset="1" stop-color="#4B568A"/>
</radialGradient>
<radialGradient id="paint9_radial_332_280" cx="0" cy="0" r="1" gradientUnits="userSpaceOnUse" gradientTransform="translate(2.57215 10.4048) rotate(180) scale(11.8171 11.8336)">
<stop stop-color="#B2B8D9"/>
<stop offset="1" stop-color="#4B568A"/>
</radialGradient>
<linearGradient id="paint10_linear_332_280" x1="11.8307" y1="0.209961" x2="50.3275" y2="0.209961" gradientUnits="userSpaceOnUse">
<stop stop-color="#939DCE"/>
<stop offset="0.224" stop-color="#9EA9D6"/>
<stop offset="0.494" stop-color="#CED3F2"/>
<stop offset="0.762" stop-color="#616DAD"/>
<stop offset="1" stop-color="#38416D"/>
</linearGradient>
<radialGradient id="paint11_radial_332_280" cx="0" cy="0" r="1" gradientUnits="userSpaceOnUse" gradientTransform="translate(17.8967 1.30446) scale(52.2822 52.3553)">
<stop stop-color="#B2B8D9"/>
<stop offset="1" stop-color="#444E7D"/>
</radialGradient>
<radialGradient id="paint12_radial_332_280" cx="0" cy="0" r="1" gradientUnits="userSpaceOnUse" gradientTransform="translate(21.5737 5.37739) scale(39.9211 39.977)">
<stop stop-color="#737AA3"/>
<stop offset="1" stop-color="#383F69"/>
</radialGradient>
<linearGradient id="paint13_linear_332_280" x1="15.8561" y1="30.0479" x2="46.3022" y2="30.0479" gradientUnits="userSpaceOnUse">
<stop stop-color="#515C95"/>
<stop offset="0.238" stop-color="#56629C"/>
<stop offset="0.506" stop-color="#C9CEF0"/>
<stop offset="0.776" stop-color="#949DD0"/>
<stop offset="1" stop-color="#8790C7"/>
</linearGradient>
<linearGradient id="paint14_linear_332_280" x1="18.7649" y1="30.3204" x2="18.7649" y2="12.4893" gradientUnits="userSpaceOnUse">
<stop stop-color="#2B334A"/>
<stop offset="1" stop-color="#798FB3"/>
</linearGradient>
<linearGradient id="paint15_linear_332_280" x1="18.7648" y1="29.6946" x2="18.7648" y2="11.8634" gradientUnits="userSpaceOnUse">
<stop stop-color="#405573"/>
<stop offset="1" stop-color="#EDF6FF"/>
</linearGradient>
<linearGradient id="paint16_linear_332_280" x1="19.1394" y1="29.2482" x2="19.1394" y2="12.3095" gradientUnits="userSpaceOnUse">
<stop stop-color="#7C93B5"/>
<stop offset="1" stop-color="#DCE7FF"/>
</linearGradient>
<linearGradient id="paint17_linear_332_280" x1="27.8105" y1="20.7791" x2="27.8105" y2="12.2417" gradientUnits="userSpaceOnUse">
<stop stop-color="#26355E"/>
<stop offset="1" stop-color="#A3D1FF"/>
</linearGradient>
<radialGradient id="paint18_radial_332_280" cx="0" cy="0" r="1" gradientUnits="userSpaceOnUse" gradientTransform="translate(8.36296 0.812502) rotate(180) scale(54.3423 54.4183)">
<stop stop-color="#1782F4"/>
<stop offset="0.771" stop-color="#0062EE"/>
<stop offset="0.95" stop-color="#2088F6"/>
<stop offset="1" stop-color="#0851A0"/>
</radialGradient>
<radialGradient id="paint19_radial_332_280" cx="0" cy="0" r="1" gradientUnits="userSpaceOnUse" gradientTransform="translate(53.7954 0.812503) scale(54.3422 54.4182)">
<stop stop-color="#1782F4"/>
<stop offset="0.771" stop-color="#0062EE"/>
<stop offset="0.95" stop-color="#2088F6"/>
<stop offset="1" stop-color="#0851A0"/>
</radialGradient>
<radialGradient id="paint20_radial_332_280" cx="0" cy="0" r="1" gradientUnits="userSpaceOnUse" gradientTransform="translate(11.3401 31.1312) scale(14.9918 15.0128)">
<stop stop-color="#2E6BAB"/>
<stop offset="1"/>
</radialGradient>
<radialGradient id="paint21_radial_332_280" cx="0" cy="0" r="1" gradientUnits="userSpaceOnUse" gradientTransform="translate(50.8183 31.1312) rotate(180) scale(14.9918 15.0128)">
<stop stop-color="#2E6BAB"/>
<stop offset="1"/>
</radialGradient>
<radialGradient id="paint22_radial_332_280" cx="0" cy="0" r="1" gradientUnits="userSpaceOnUse" gradientTransform="translate(31.0791 41.0598) scale(18.0663 18.0916)">
<stop stop-color="#79B7F9"/>
<stop offset="0.779" stop-color="#064588"/>
<stop offset="1" stop-color="#3491F5"/>
</radialGradient>
<radialGradient id="paint23_radial_332_280" cx="0" cy="0" r="1" gradientUnits="userSpaceOnUse" gradientTransform="translate(31.0789 41.2399) scale(18.0462 18.0714)">
<stop stop-color="#0966C9"/>
<stop offset="1" stop-color="#064588"/>
</radialGradient>
<radialGradient id="paint24_radial_332_280" cx="0" cy="0" r="1" gradientUnits="userSpaceOnUse" gradientTransform="translate(30.7731 78.4982) scale(48.0409 48.1081)">
<stop offset="0.933" stop-color="#31426E"/>
<stop offset="1" stop-color="#79A0E0"/>
</radialGradient>
<radialGradient id="paint25_radial_332_280" cx="0" cy="0" r="1" gradientUnits="userSpaceOnUse" gradientTransform="translate(31.2514 101.378) scale(71.1901 71.2898)">
<stop offset="0.927" stop-color="#3A5A85"/>
<stop offset="1" stop-color="#EDF6FF"/>
</radialGradient>
<radialGradient id="paint26_radial_332_280" cx="0" cy="0" r="1" gradientUnits="userSpaceOnUse" gradientTransform="translate(31.1913 87.2354) scale(57.0161 57.0959)">
<stop offset="0.911" stop-color="#7C93B5"/>
<stop offset="1" stop-color="#DCE7FF"/>
</radialGradient>
</defs>
</svg>
