<svg width="36" height="36" viewBox="0 0 36 36" fill="none" xmlns="http://www.w3.org/2000/svg">
<path fill-rule="evenodd" clip-rule="evenodd" d="M27.2402 28C27.108 28 26.9754 27.9669 26.854 27.9002L22.4999 25.5054L18.146 27.9002C17.8663 28.054 17.5274 28.0283 17.2718 27.834C17.0162 27.6398 16.8882 27.3105 16.9416 26.9846L17.7731 21.9124L14.2507 18.3203C14.0245 18.0895 13.943 17.7444 14.0407 17.4301C14.1383 17.1156 14.3981 16.8866 14.7108 16.839L19.5786 16.099L21.7556 11.4841C21.8955 11.1876 22.1841 11 22.4999 11C22.8159 11 23.1045 11.1876 23.2444 11.4841L25.4213 16.099L30.2892 16.839C30.6018 16.8866 30.8616 17.1157 30.9594 17.4301C31.057 17.7445 30.9756 18.0896 30.7493 18.3203L27.2268 21.9125L28.0583 26.9848C28.1118 27.3105 27.9837 27.6398 27.7282 27.834C27.5835 27.9439 27.4124 28 27.2402 28Z" fill="#2CA0E2"/>
<path fill-rule="evenodd" clip-rule="evenodd" d="M19.7978 26C19.6502 26 19.502 25.9631 19.3662 25.8885L14.5 23.2119L9.63377 25.8885C9.32117 26.0603 8.94239 26.0318 8.65676 25.8145C8.37107 25.5973 8.22797 25.2293 8.28768 24.8653L9.21704 19.1962L5.28019 15.1815C5.02733 14.9236 4.9363 14.5379 5.04544 14.1865C5.15454 13.8351 5.44492 13.5791 5.79438 13.5259L11.235 12.6988L13.6681 7.54101C13.8244 7.20973 14.1469 7 14.5 7C14.8532 7 15.1757 7.20973 15.3319 7.54105L17.765 12.6989L23.2057 13.526C23.5551 13.5791 23.8455 13.8352 23.9546 14.1866C24.0636 14.5379 23.9727 14.9236 23.7198 15.1815L19.783 19.1963L20.7123 24.8653C20.772 25.2295 20.6289 25.5975 20.3433 25.8145C20.1816 25.9374 19.9902 26 19.7978 26ZM14.4996 21.1446C14.6479 21.1446 14.7962 21.1818 14.9314 21.2562L18.5654 23.2549L17.8714 19.0214C17.8197 18.7065 17.9195 18.3852 18.1382 18.1623L21.0782 15.164L17.0152 14.5464C16.713 14.5004 16.4518 14.3019 16.3167 14.0154L14.4996 10.1636L12.6826 14.0154C12.5474 14.3019 12.2862 14.5004 11.9841 14.5464L7.92103 15.164L10.8611 18.1623C11.0798 18.3852 11.1795 18.7065 11.1279 19.0214L10.4338 23.2549L14.0679 21.2562C14.203 21.1818 14.3514 21.1446 14.4996 21.1446Z" fill="url(#paint0_linear_294_3782)"/>
<defs>
<linearGradient id="paint0_linear_294_3782" x1="5" y1="7" x2="24" y2="26" gradientUnits="userSpaceOnUse">
<stop stop-color="#2CA0E2" stop-opacity="0.64"/>
<stop offset="1" stop-color="#2CA0E2" stop-opacity="0"/>
</linearGradient>
</defs>
</svg>
