<svg width="24" height="25" viewBox="0 0 24 25" fill="none" xmlns="http://www.w3.org/2000/svg">
<path d="M21 6.48047C17.67 6.15047 14.32 5.98047 10.98 5.98047C9 5.98047 7.02 6.08047 5.04 6.28047L3 6.48047" stroke="#2CA0E2" stroke-width="1.5" stroke-linecap="round" stroke-linejoin="round"/>
<path d="M8.5 5.47L8.72 4.16C8.88 3.21 9 2.5 10.69 2.5H13.31C15 2.5 15.13 3.25 15.28 4.17L15.5 5.47" stroke="#2CA0E2" stroke-width="1.5" stroke-linecap="round" stroke-linejoin="round"/>
<path d="M18.85 9.63965L18.2 19.7096C18.09 21.2796 18 22.4996 15.21 22.4996H8.79002C6.00002 22.4996 5.91002 21.2796 5.80002 19.7096L5.15002 9.63965" stroke="#2CA0E2" stroke-width="1.5" stroke-linecap="round" stroke-linejoin="round"/>
<path d="M10.33 17H13.66" stroke="#2CA0E2" stroke-width="1.5" stroke-linecap="round" stroke-linejoin="round"/>
<path d="M9.5 13H14.5" stroke="#2CA0E2" stroke-width="1.5" stroke-linecap="round" stroke-linejoin="round"/>
</svg>
