<svg width="20" height="21" viewBox="0 0 20 21" fill="none" xmlns="http://www.w3.org/2000/svg">
<path fill-rule="evenodd" clip-rule="evenodd" d="M17.4937 6.3025C17.4921 6.2425 17.4746 6.18583 17.4587 6.12833C17.4462 6.08 17.4404 6.03083 17.4196 5.98667C17.4004 5.94333 17.3679 5.90833 17.3396 5.86833C17.3046 5.8175 17.2729 5.76667 17.2279 5.725C17.2204 5.7175 17.2171 5.7075 17.2087 5.70083C17.1787 5.675 17.1421 5.66583 17.1096 5.645C17.0596 5.6125 17.0104 5.57917 16.9537 5.5575C16.8979 5.5375 16.8429 5.5325 16.7854 5.52417C16.7454 5.51833 16.7096 5.5 16.6671 5.5H12.5004C12.0396 5.5 11.6671 5.87333 11.6671 6.33333C11.6671 6.79333 12.0396 7.16667 12.5004 7.16667H14.8554L11.4921 11.09L7.92875 8.9525C7.57625 8.73917 7.12291 8.8175 6.85958 9.13333L2.69291 14.1333C2.39875 14.4867 2.44625 15.0125 2.79958 15.3067C2.95625 15.4367 3.14458 15.5 3.33291 15.5C3.57208 15.5 3.80875 15.3983 3.97375 15.2L7.68375 10.7483L11.2379 12.8817C11.5871 13.0908 12.0354 13.0175 12.2996 12.7092L15.8337 8.58583V10.5C15.8337 10.96 16.2062 11.3333 16.6671 11.3333C17.1279 11.3333 17.5004 10.96 17.5004 10.5V6.33333C17.5004 6.3225 17.4946 6.31333 17.4937 6.3025Z" fill="#03A66D"/>
</svg>
